<svg xmlns="http://www.w3.org/2000/svg" x="0px" y="0px" width="100" height="100" viewBox="0,0,256,256">
    <g id="home" fill="#a605ef" fill-rule="nonzero" stroke="none" stroke-width="1" stroke-linecap="butt" stroke-linejoin="miter" stroke-miterlimit="10" stroke-dasharray="" stroke-dashoffset="0" font-family="none" font-weight="none" font-size="none" text-anchor="none" style="mix-blend-mode: normal">
    <g transform="scale(5.12,5.12)">
        <path d="M25,1.05078c-0.2175,0 -0.43414,0.06898 -0.61914,0.20898l-23,17.95117c-0.43,0.34 -0.50992,0.9682 -0.16992,1.4082c0.34,0.43 0.9682,0.50992 1.4082,0.16992l1.38086,-1.07812v26.28906c0,0.55 0.45,1 1,1h14v-18h12v18h14c0.55,0 1,-0.45 1,-1v-26.28906l1.38086,1.07812c0.19,0.14 0.39914,0.21094 0.61914,0.21094c0.3,0 0.58906,-0.13086 0.78906,-0.38086c0.34,-0.44 0.26008,-1.0682 -0.16992,-1.4082l-23,-17.95117c-0.185,-0.14 -0.40164,-0.20898 -0.61914,-0.20898zM35,5v1.05078l6,4.67969v-5.73047z"></path>
    </g>
    </g>

    
    <g id="html" fill="#a605ef" fill-rule="nonzero" stroke="none" stroke-width="1" stroke-linecap="butt" stroke-linejoin="miter" stroke-miterlimit="10" stroke-dasharray="" stroke-dashoffset="0" font-family="none" font-weight="none" font-size="none" text-anchor="none" style="mix-blend-mode: normal">
    <g transform="scale(5.12,5.12)">
        <path d="M45.27344,2.32422c-0.1875,-0.20703 -0.45703,-0.32422 -0.73828,-0.32422h-39.07031c-0.28125,0 -0.55078,0.11719 -0.73828,0.32422c-0.19141,0.20703 -0.28516,0.48438 -0.25781,0.76563l3.51953,39.42578c0.03516,0.41406 0.32422,0.75781 0.72266,0.875l16.01172,4.57031c0.08594,0.02734 0.17969,0.03906 0.27344,0.03906c0.09375,0 0.18359,-0.01172 0.27344,-0.03906l16.02344,-4.57031c0.39844,-0.11719 0.68359,-0.46094 0.72266,-0.875l3.51563,-39.42578c0.02734,-0.28125 -0.06641,-0.55859 -0.25781,-0.76562zM36.84766,15.91797h-18.8125l0.44922,5.08984h17.91016l-1.34375,15.04297l-10.05859,3.03906l-0.09766,-0.03125l-9.94141,-3.01172l-0.54297,-6.12891h4.87109l0.21094,2.37891l5.55859,1.16406l5.45703,-1.16406l0.58203,-6.4375h-17.04297l-1.32422,-14.80469h24.55859z"></path>
    </g>
    </g>

    
    <g id="css" fill="#a605ef" fill-rule="evenodd" stroke="none" stroke-width="1" stroke-linecap="butt" stroke-linejoin="miter" stroke-miterlimit="10" stroke-dasharray="" stroke-dashoffset="0" font-family="none" font-weight="none" font-size="none" text-anchor="none" style="mix-blend-mode: normal">
    <g transform="scale(5.12,5.12)">
        <path d="M42,6l-3,34l-14,4l-14,-4l-3,-34zM16.80078,28h4l0.09766,2.5l4.10156,1.39844l4.10156,-1.39844l0.29688,-4.5h-8.79687l-0.20312,-4h9.20313l0.29688,-4h-13.79687l-0.30078,-4h18.30078l-0.5,8l-0.70312,11.5l-7.89844,2.60156l-7.89844,-2.60156z"></path>
    </g>
    </g>

    
    <g id="js" fill="#a605ef" fill-rule="nonzero" stroke="none" stroke-width="1" stroke-linecap="butt" stroke-linejoin="miter" stroke-miterlimit="10" stroke-dasharray="" stroke-dashoffset="0" font-family="none" font-weight="none" font-size="none" text-anchor="none" style="mix-blend-mode: normal">
    <g transform="scale(5.12,5.12)">
        <path d="M43.33594,4h-36.66797c-1.47266,0 -2.66797,1.19531 -2.66797,2.66797v36.66406c0,1.47266 1.19531,2.66797 2.66797,2.66797h36.66406c1.47266,0 2.66797,-1.19531 2.66797,-2.66406v-36.66797c0,-1.47266 -1.19531,-2.66797 -2.66406,-2.66797zM27,36.18359c0,3.99609 -2.34375,5.81641 -5.76562,5.81641c-3.09375,0 -5.32422,-2.07422 -6.23437,-4l3.14453,-1.90234c0.60547,1.07422 1.52734,1.90234 2.85547,1.90234c1.26953,0 2,-0.49609 2,-2.42578v-12.57422h4zM35.67578,42c-3.54297,0 -5.55469,-1.78516 -6.67578,-4l3,-2c0.81641,1.33594 1.70703,2.61328 3.58984,2.61328c1.58203,0 2.41016,-0.78906 2.41016,-1.88281c0,-1.30469 -0.85937,-1.76953 -2.59766,-2.53125l-0.95312,-0.41016c-2.75391,-1.17187 -4.58594,-2.64062 -4.58594,-5.75c0,-2.85937 2.18359,-5.03906 5.58984,-5.03906c2.42578,0 4.16797,0.84375 5.42578,3.05469l-2.96875,1.91016c-0.65625,-1.17578 -1.35937,-1.63672 -2.45703,-1.63672c-1.11719,0 -1.82422,0.71094 -1.82422,1.63672c0,1.14453 0.70703,1.60547 2.34375,2.31641l0.95313,0.41016c3.24609,1.38672 5.07422,2.80469 5.07422,5.99219c0,3.43359 -2.69922,5.31641 -6.32422,5.31641z"></path>
    </g>
    </g>

    
</svg>