<svg xmlns="http://www.w3.org/2000/svg" x="0px" y="0px" width="100" height="100" viewBox="0,0,256,256">
    <g id="home" fill="#a605ef" fill-rule="nonzero" stroke="none" stroke-width="1" stroke-linecap="butt" stroke-linejoin="miter" stroke-miterlimit="10" stroke-dasharray="" stroke-dashoffset="0" font-family="none" font-weight="none" font-size="none" text-anchor="none" style="mix-blend-mode: normal">
    <g transform="scale(5.12,5.12)">
        <path d="M25,1.05078c-0.2175,0 -0.43414,0.06898 -0.61914,0.20898l-23,17.95117c-0.43,0.34 -0.50992,0.9682 -0.16992,1.4082c0.34,0.43 0.9682,0.50992 1.4082,0.16992l1.38086,-1.07812v26.28906c0,0.55 0.45,1 1,1h14v-18h12v18h14c0.55,0 1,-0.45 1,-1v-26.28906l1.38086,1.07812c0.19,0.14 0.39914,0.21094 0.61914,0.21094c0.3,0 0.58906,-0.13086 0.78906,-0.38086c0.34,-0.44 0.26008,-1.0682 -0.16992,-1.4082l-23,-17.95117c-0.185,-0.14 -0.40164,-0.20898 -0.61914,-0.20898zM35,5v1.05078l6,4.67969v-5.73047z"></path>
    </g>
    </g>

    
    <g id="home_header" fill="#2c3673" fill-rule="nonzero" stroke="none" stroke-width="1" stroke-linecap="butt" stroke-linejoin="miter" stroke-miterlimit="10" stroke-dasharray="" stroke-dashoffset="0" font-family="none" font-weight="none" font-size="none" text-anchor="none" style="mix-blend-mode: normal">
    <g transform="scale(5.12,5.12)">
        <path d="M24.96289,1.05469c-0.20987,0.00724 -0.41214,0.08036 -0.57812,0.20898l-23,17.94727c-0.43579,0.33978 -0.51361,0.96851 -0.17383,1.4043c0.33978,0.43579 0.96851,0.51361 1.4043,0.17383l1.38477,-1.08008v26.29102c0.00006,0.55226 0.44774,0.99994 1,1h13.83203c0.10799,0.01785 0.21818,0.01785 0.32617,0h11.67383c0.10799,0.01785 0.21818,0.01785 0.32617,0h13.8418c0.55226,-0.00006 0.99994,-0.44774 1,-1v-26.29102l1.38477,1.08008c0.2819,0.21983 0.65967,0.27257 0.991,0.13833c0.33133,-0.13423 0.56586,-0.43504 0.61526,-0.7891c0.0494,-0.35406 -0.09386,-0.70757 -0.37579,-0.92736l-7.61523,-5.94141v-7.26953h-6v2.58594l-9.38477,-7.32227c-0.18607,-0.14428 -0.41707,-0.21828 -0.65234,-0.20898zM25,3.32227l19,14.82617v26.85156h-12v-19h-14v19h-12v-26.85156zM37,8h2v3.70898l-2,-1.5625zM20,28h10v17h-10z"></path>
    </g>
    </g>

    <g id="html" fill="#2c3673" fill-rule="nonzero" stroke="none" stroke-width="1" stroke-linecap="butt" stroke-linejoin="miter" stroke-miterlimit="10" stroke-dasharray="" stroke-dashoffset="0" font-family="none" font-weight="none" font-size="none" text-anchor="none" style="mix-blend-mode: normal">
    <g transform="scale(5.12,5.12)">
        <path d="M45.27344,2.32422c-0.1875,-0.20703 -0.45703,-0.32422 -0.73828,-0.32422h-39.07031c-0.28125,0 -0.55078,0.11719 -0.73828,0.32422c-0.19141,0.20703 -0.28516,0.48438 -0.25781,0.76563l3.51953,39.42578c0.03516,0.41406 0.32422,0.75781 0.72266,0.875l16.01172,4.57031c0.08594,0.02734 0.17969,0.03906 0.27344,0.03906c0.09375,0 0.18359,-0.01172 0.27344,-0.03906l16.02344,-4.57031c0.39844,-0.11719 0.68359,-0.46094 0.72266,-0.875l3.51563,-39.42578c0.02734,-0.28125 -0.06641,-0.55859 -0.25781,-0.76562zM36.84766,15.91797h-18.8125l0.44922,5.08984h17.91016l-1.34375,15.04297l-10.05859,3.03906l-0.09766,-0.03125l-9.94141,-3.01172l-0.54297,-6.12891h4.87109l0.21094,2.37891l5.55859,1.16406l5.45703,-1.16406l0.58203,-6.4375h-17.04297l-1.32422,-14.80469h24.55859z"></path>
    </g>
    </g>

    
    <g id="css" fill="#2c3673" fill-rule="evenodd" stroke="none" stroke-width="1" stroke-linecap="butt" stroke-linejoin="miter" stroke-miterlimit="10" stroke-dasharray="" stroke-dashoffset="0" font-family="none" font-weight="none" font-size="none" text-anchor="none" style="mix-blend-mode: normal">   
    <g transform="scale(5.12,5.12)">
        <path d="M42,6l-3,34l-14,4l-14,-4l-3,-34zM16.80078,28h4l0.09766,2.5l4.10156,1.39844l4.10156,-1.39844l0.29688,-4.5h-8.79687l-0.20312,-4h9.20313l0.29688,-4h-13.79687l-0.30078,-4h18.30078l-0.5,8l-0.70312,11.5l-7.89844,2.60156l-7.89844,-2.60156z"></path>
    </g>
    </g>

    
    <g id="js" fill="#2c3673" fill-rule="nonzero" stroke="none" stroke-width="1" stroke-linecap="butt" stroke-linejoin="miter" stroke-miterlimit="10" stroke-dasharray="" stroke-dashoffset="0" font-family="none" font-weight="none" font-size="none" text-anchor="none" style="mix-blend-mode: normal">
    <g transform="scale(5.12,5.12)">
        <path d="M43.33594,4h-36.66797c-1.47266,0 -2.66797,1.19531 -2.66797,2.66797v36.66406c0,1.47266 1.19531,2.66797 2.66797,2.66797h36.66406c1.47266,0 2.66797,-1.19531 2.66797,-2.66406v-36.66797c0,-1.47266 -1.19531,-2.66797 -2.66406,-2.66797zM27,36.18359c0,3.99609 -2.34375,5.81641 -5.76562,5.81641c-3.09375,0 -5.32422,-2.07422 -6.23437,-4l3.14453,-1.90234c0.60547,1.07422 1.52734,1.90234 2.85547,1.90234c1.26953,0 2,-0.49609 2,-2.42578v-12.57422h4zM35.67578,42c-3.54297,0 -5.55469,-1.78516 -6.67578,-4l3,-2c0.81641,1.33594 1.70703,2.61328 3.58984,2.61328c1.58203,0 2.41016,-0.78906 2.41016,-1.88281c0,-1.30469 -0.85937,-1.76953 -2.59766,-2.53125l-0.95312,-0.41016c-2.75391,-1.17187 -4.58594,-2.64062 -4.58594,-5.75c0,-2.85937 2.18359,-5.03906 5.58984,-5.03906c2.42578,0 4.16797,0.84375 5.42578,3.05469l-2.96875,1.91016c-0.65625,-1.17578 -1.35937,-1.63672 -2.45703,-1.63672c-1.11719,0 -1.82422,0.71094 -1.82422,1.63672c0,1.14453 0.70703,1.60547 2.34375,2.31641l0.95313,0.41016c3.24609,1.38672 5.07422,2.80469 5.07422,5.99219c0,3.43359 -2.69922,5.31641 -6.32422,5.31641z"></path>
    </g>
    </g>


    <g id="typescript" fill="#2c3673" fill-rule="nonzero" stroke="none" stroke-width="1" stroke-linecap="butt" stroke-linejoin="miter" stroke-miterlimit="10" stroke-dasharray="" stroke-dashoffset="0" font-family="none" font-weight="none" font-size="none" text-anchor="none" style="mix-blend-mode: normal">
    <g transform="scale(5.12,5.12)">
        <path d="M45,4h-40c-0.553,0 -1,0.448 -1,1v40c0,0.552 0.447,1 1,1h40c0.553,0 1,-0.448 1,-1v-40c0,-0.552 -0.447,-1 -1,-1zM29,26.445h-5v15.555h-4v-15.555h-5v-3.445h14zM30.121,41.112v-4.158c0,0 2.271,1.712 4.996,1.712c2.725,0 2.62,-1.782 2.62,-2.026c0,-2.586 -7.721,-2.586 -7.721,-8.315c0,-7.791 11.25,-4.717 11.25,-4.717l-0.14,3.704c0,0 -1.887,-1.258 -4.018,-1.258c-2.131,0 -2.9,1.013 -2.9,2.096c0,2.795 7.791,2.516 7.791,8.141c0.001,8.664 -11.878,4.821 -11.878,4.821z"></path>
    </g>
    </g>

    
    <g id="react" fill="#2c3673" fill-rule="evenodd" stroke="none" stroke-width="1" stroke-linecap="butt" stroke-linejoin="miter" stroke-miterlimit="10" stroke-dasharray="" stroke-dashoffset="0" font-family="none" font-weight="none" font-size="none" text-anchor="none" style="mix-blend-mode: normal">
    <g transform="scale(5.12,5.12)">
        <path d="M34.55469,3.98438c-0.77969,-0.02622 -1.5958,0.10972 -2.41406,0.375c-1.63652,0.53057 -3.35142,1.56451 -5.11133,2.99609c-0.68971,0.56104 -1.38567,1.20236 -2.08398,1.88281c-0.68291,-0.66318 -1.36458,-1.28728 -2.03906,-1.83594c-1.75849,-1.43043 -3.46875,-2.46478 -5.10156,-2.99414c-1.63281,-0.52936 -3.25746,-0.54577 -4.5918,0.22461c-1.33433,0.77038 -2.13227,2.18454 -2.49024,3.86328c-0.35796,1.67874 -0.31853,3.6779 0.04102,5.91602c0.12489,0.7774 0.303,1.59297 0.50586,2.42383c-0.76244,0.23107 -1.50285,0.47402 -2.18945,0.74219c-2.0721,0.80931 -3.78663,1.77754 -5.03516,2.92969c-1.24853,1.15215 -2.05469,2.55049 -2.05469,4.08594c0,1.53545 0.80616,2.93183 2.05469,4.08398c1.24852,1.15215 2.96306,2.12233 5.03516,2.93164c0.73417,0.28675 1.52904,0.54495 2.34961,0.78906c-0.29516,1.10284 -0.53429,2.17303 -0.69727,3.1875c-0.35984,2.23992 -0.39783,4.23933 -0.03906,5.92187c0.35878,1.68255 1.15712,3.10472 2.49805,3.87891c1.34093,0.77419 2.97286,0.75518 4.60938,0.22461c1.63652,-0.53057 3.34947,-1.56256 5.10938,-2.99414c0.68336,-0.55587 1.3746,-1.18998 2.06641,-1.86328c0.69543,0.67736 1.38944,1.31443 2.07617,1.87305c1.75849,1.43043 3.4707,2.46282 5.10352,2.99219c1.63281,0.52936 3.25747,0.54577 4.5918,-0.22461c1.33433,-0.77038 2.13032,-2.18454 2.48828,-3.86328c0.35796,-1.67874 0.31853,-3.67595 -0.04102,-5.91406c-0.16341,-1.01722 -0.4027,-2.09096 -0.69922,-3.19727c0.84768,-0.25006 1.66765,-0.5152 2.42383,-0.81055c2.0721,-0.80931 3.78663,-1.77949 5.03516,-2.93164c1.24853,-1.15215 2.05469,-2.54854 2.05469,-4.08398c0,-1.53545 -0.80616,-2.93379 -2.05469,-4.08594c-1.24853,-1.15215 -2.96306,-2.12037 -5.03516,-2.92969c-0.69645,-0.27202 -1.44823,-0.51813 -2.22266,-0.75195c0.20451,-0.83595 0.38608,-1.65737 0.51172,-2.43945c0.35983,-2.23991 0.39784,-4.24128 0.03906,-5.92383c-0.35877,-1.68255 -1.15907,-3.10277 -2.5,-3.87695c-0.67047,-0.38709 -1.41367,-0.57535 -2.19336,-0.60156zM34.46289,6.01953c0.48926,0.01338 0.90664,0.12981 1.26367,0.33594c0.71406,0.41226 1.24186,1.21462 1.52344,2.53516c0.28158,1.32053 0.27185,3.1047 -0.06055,5.17383c-0.11381,0.70843 -0.27905,1.45924 -0.4668,2.22852c-2.0455,-0.49227 -4.28691,-0.85757 -6.67578,-1.07227c-1.19924,-1.66137 -2.43147,-3.17492 -3.67383,-4.51758c0.65714,-0.64146 1.31002,-1.2414 1.94727,-1.75977c1.62571,-1.32243 3.16481,-2.22226 4.44922,-2.63867c0.6422,-0.20821 1.2041,-0.29854 1.69336,-0.28516zM15.48633,6.02539c0.49209,-0.01374 1.05516,0.07635 1.69922,0.28516c1.28811,0.41761 2.82991,1.31705 4.45703,2.64063c0.62446,0.50796 1.26272,1.09648 1.90625,1.72266c-1.25155,1.35365 -2.49397,2.88031 -3.70117,4.55664c-2.37877,0.21861 -4.61105,0.58588 -6.64648,1.08008c-0.18635,-0.76501 -0.35161,-1.51196 -0.46484,-2.2168c-0.33269,-2.07092 -0.34099,-3.85535 -0.05859,-5.17969c0.28239,-1.32434 0.8145,-2.13276 1.53516,-2.54883c0.36032,-0.20803 0.78135,-0.32611 1.27344,-0.33984zM24.97656,12.14258c0.81461,0.88649 1.62939,1.85658 2.4375,2.90039c-0.79403,-0.03311 -1.59777,-0.05274 -2.41406,-0.05274c-0.83254,0 -1.65159,0.02026 -2.46094,0.05469c0.80829,-1.04462 1.62269,-2.01518 2.4375,-2.90234zM25,17.00977c1.35989,0 2.68535,0.05588 3.97461,0.15039c0.88712,1.27416 1.75404,2.6259 2.58008,4.05664c0.72582,1.25715 1.38264,2.51237 1.98047,3.75195c-0.60414,1.25603 -1.27197,2.52822 -2.00781,3.80273c-0.64774,1.12191 -1.32415,2.18746 -2.01172,3.21484c-1.45631,0.12172 -2.96532,0.18945 -4.51562,0.18945c-1.58762,0 -3.13054,-0.07175 -4.61914,-0.19922c-0.67612,-1.01261 -1.34112,-2.06202 -1.97852,-3.16602c-0.73416,-1.2716 -1.39877,-2.54147 -2.00195,-3.79492c0.60572,-1.26053 1.27331,-2.53745 2.01172,-3.81641c0.82171,-1.42324 1.6861,-2.76716 2.56836,-4.03516c1.30314,-0.09664 2.64398,-0.1543 4.01953,-0.1543zM31.54883,17.41016c1.64847,0.20568 3.19626,0.49125 4.63672,0.83398c-0.42742,1.40115 -0.95389,2.86467 -1.5918,4.375c-0.41418,-0.79842 -0.84315,-1.59956 -1.30664,-2.40234c-0.56169,-0.97287 -1.1467,-1.90038 -1.73828,-2.80664zM18.34375,17.42578c-0.5791,0.88932 -1.14891,1.7988 -1.69922,2.75195c-0.46944,0.81309 -0.90731,1.625 -1.32617,2.43359c-0.6324,-1.50125 -1.1557,-2.95645 -1.58008,-4.34961c1.42972,-0.34336 2.96848,-0.62791 4.60547,-0.83594zM38.16406,18.77539c0.70888,0.21449 1.3935,0.43832 2.02148,0.68359c1.91015,0.74606 3.4211,1.62951 4.40039,2.5332c0.97929,0.90369 1.4043,1.76551 1.4043,2.60156c0,0.83605 -0.42501,1.69787 -1.4043,2.60156c-0.97929,0.90369 -2.49024,1.78714 -4.40039,2.5332c-0.69785,0.27256 -1.46459,0.51973 -2.26172,0.75391c-0.56863,-1.75878 -1.29442,-3.59365 -2.1582,-5.4668c0.99316,-2.15054 1.79546,-4.24734 2.39844,-6.24023zM11.80273,18.78516c0.59607,1.97301 1.38808,4.04896 2.36719,6.17773c-0.86945,1.88406 -1.59883,3.72936 -2.16992,5.49805c-0.76904,-0.22802 -1.50979,-0.46849 -2.18555,-0.73242c-1.91015,-0.74606 -3.4211,-1.62951 -4.40039,-2.5332c-0.97929,-0.90369 -1.4043,-1.76551 -1.4043,-2.60156c0,-0.83605 0.42501,-1.69787 1.4043,-2.60156c0.97929,-0.90369 2.49024,-1.78714 4.40039,-2.5332c0.61832,-0.2415 1.29146,-0.46215 1.98828,-0.67383zM25,20c-2.74958,0 -5,2.25042 -5,5c0,2.74958 2.25042,5 5,5c2.74958,0 5,-2.25042 5,-5c0,-2.74958 -2.25042,-5 -5,-5zM15.3418,27.36523c0.4207,0.81262 0.85823,1.62805 1.33008,2.44531c0.36917,0.63943 0.7462,1.26185 1.12891,1.87305c-1.34296,-0.18622 -2.61955,-0.42199 -3.81836,-0.70117c0.38123,-1.16761 0.83732,-2.37963 1.35938,-3.61719zM34.61914,27.36523c0.52414,1.24049 0.98047,2.45445 1.36328,3.625c-1.20261,0.27886 -2.48313,0.51382 -3.83008,0.69922c0.38773,-0.61867 0.77064,-1.24888 1.14453,-1.89648c0.46838,-0.81125 0.90421,-1.62105 1.32227,-2.42773zM13.40625,32.92383c1.80982,0.42874 3.77147,0.75808 5.85156,0.97266c1.38857,2.00838 2.83516,3.81301 4.29102,5.39063c-0.65102,0.63475 -1.29626,1.23047 -1.92773,1.74414c-1.62571,1.32243 -3.16677,2.22031 -4.45117,2.63672c-1.28441,0.41641 -2.24298,0.36148 -2.95703,-0.05078c-0.71406,-0.41226 -1.2399,-1.21462 -1.52149,-2.53516c-0.28158,-1.32053 -0.2738,-3.10275 0.05859,-5.17187c0.15079,-0.93866 0.37615,-1.94378 0.65625,-2.98633zM36.56055,32.93164c0.28244,1.04891 0.50847,2.05771 0.66016,3.00195c0.33269,2.07092 0.34099,3.85535 0.05859,5.17969c-0.28239,1.32434 -0.8106,2.13471 -1.53125,2.55078c-0.72065,0.41607 -1.68845,0.47035 -2.97656,0.05273c-1.28811,-0.41761 -2.82991,-1.31705 -4.45703,-2.64062c-0.63601,-0.51736 -1.28573,-1.11791 -1.94141,-1.75781c1.46562,-1.58377 2.92242,-3.3976 4.32031,-5.41797c2.08534,-0.21314 4.05243,-0.54052 5.86719,-0.96875zM21.86719,34.10156c1.02676,0.05596 2.06706,0.09375 3.13281,0.09375c1.0305,0 2.03706,-0.03552 3.03125,-0.08789c-1.01629,1.37117 -2.05222,2.61773 -3.08398,3.74023c-1.03114,-1.1249 -2.06512,-2.37369 -3.08008,-3.74609z"></path>
    </g>
    </g>


    
    <g id="telegram" fill="#2c3673" fill-rule="nonzero" stroke="none" stroke-width="1" stroke-linecap="butt" stroke-linejoin="miter" stroke-miterlimit="10" stroke-dasharray="" stroke-dashoffset="0" font-family="none" font-weight="none" font-size="none" text-anchor="none" style="mix-blend-mode: normal">
    <g transform="scale(3.2,3.2)">
        <path d="M70.51172,10.98633c-0.67863,0.02926 -1.35467,0.21041 -1.97461,0.45117h-0.00195c-0.60411,0.2358 -4.48522,1.84373 -10.14258,4.19141c-5.65736,2.34768 -13.01048,5.404 -20.30078,8.43555c-14.58061,6.0631 -28.9082,12.02734 -28.9082,12.02734l0.06445,-0.02344c0,0 -0.79953,0.26194 -1.59961,0.80273c-0.40004,0.2704 -0.82004,0.61586 -1.15234,1.0957c-0.33231,0.47985 -0.56619,1.13701 -0.47656,1.8418c0.16174,1.27188 1.02867,2.10383 1.74414,2.60352c0.71547,0.49968 1.40234,0.73633 1.40234,0.73633l0.00781,0.00391l14.01367,4.63281c0.2306,0.80255 3.97634,13.84591 4.85938,16.59961c0.46188,1.44194 0.88905,2.24239 1.28906,2.74609c0.20001,0.25185 0.39752,0.43068 0.5957,0.55273c0.0852,0.05247 0.16963,0.08796 0.25195,0.11914c0.01342,0.0051 0.02775,0.015 0.04102,0.01953c0.02825,0.00964 0.04333,0.00955 0.07813,0.01758c1.32029,0.48836 2.43555,-0.36328 2.43555,-0.36328l0.03125,-0.02344l9.60742,-8.45312l14.20898,11.39453l0.125,0.05469c2.28019,0.98225 4.16484,0.44263 5.25977,-0.42187c1.09492,-0.86451 1.53906,-1.99609 1.53906,-1.99609l0.03516,-0.08789l10.25,-51.8457c0.25119,-1.10908 0.27647,-2.04004 0.05859,-2.83984c-0.21787,-0.79981 -0.72465,-1.45012 -1.35352,-1.81445c-0.62886,-0.36433 -1.30965,-0.48629 -1.98828,-0.45703zM70.56641,13.02148c0.39803,-0.01713 0.7335,0.03755 0.93164,0.15234c0.19814,0.11479 0.3269,0.2464 0.42578,0.60938c0.09888,0.36298 0.12273,0.97567 -0.08008,1.87109l-0.00391,0.01367l-10.20898,51.64453c-0.01501,0.03457 -0.27802,0.65313 -0.90039,1.14453c-0.62753,0.49547 -1.48163,0.86159 -3.15234,0.16992l-22.83984,-18.31641c-0.19209,-0.20184 -0.45967,-0.3144 -0.73828,-0.31055c-0.54704,-0.00653 -0.99781,0.4277 -1.01172,0.97461l-2.60352,13.94922c-0.13311,-0.30654 -0.27655,-0.66622 -0.43164,-1.15039c-0.80596,-2.51336 -4.43022,-15.09812 -4.78711,-16.33789l35.84766,-23.20898c0.1064,0.45742 0.51674,0.77918 0.98633,0.77344c0.30539,0.00365 0.59571,-0.13244 0.78826,-0.36951c0.19255,-0.23707 0.26622,-0.54913 0.20002,-0.84728c0.02657,-0.30602 0.00094,-0.60696 -0.13281,-0.90625c-0.21582,-0.4829 -0.72675,-0.7769 -1.08984,-0.8457c-0.7262,-0.13761 -1.19922,0.12695 -1.19922,0.12695l-0.09961,0.03711l-36.60937,23.70508l-14.03125,-4.63867l-0.00391,-0.00195c-0.00371,-0.00129 -0.44451,-0.16035 -0.91406,-0.48828c-0.47153,-0.32932 -0.84604,-0.75673 -0.9043,-1.21484c-0.02037,-0.16022 0.0104,-0.26877 0.13672,-0.45117c0.12632,-0.1824 0.36049,-0.39802 0.62695,-0.57812c0.53292,-0.36021 1.12109,-0.56445 1.12109,-0.56445l0.03125,-0.01172l0.0332,-0.01367c0,0 14.32611,-5.96444 28.90625,-12.02734c7.29007,-3.03145 14.64429,-6.08627 20.30078,-8.43359c5.65649,-2.34732 9.69622,-4.01758 10.10156,-4.17578c0.44606,-0.17323 0.90665,-0.26217 1.30469,-0.2793zM59.19922,25.69922l-0.80078,0.40234l-0.1582,0.88281l0.61328,0.6543l0.3457,0.06055l0.80078,-0.40039l0.1582,-0.88281l-0.61133,-0.6543zM56.40039,28.40039l-0.80078,0.40039l-0.1582,0.88281l0.61133,0.6543l0.34766,0.0625l0.80078,-0.40234l0.1582,-0.88086l-0.61328,-0.6543zM53.59961,31.09961l-0.80078,0.40234l-0.1582,0.88086l0.61133,0.6543l0.34766,0.0625l0.80078,-0.40039l0.1582,-0.88281l-0.61133,-0.6543zM50.80078,33.80078l-0.80273,0.40039l-0.15625,0.88281l0.61133,0.6543l0.34766,0.0625l0.80078,-0.40234l0.1582,-0.88086l-0.61328,-0.65625zM48,36.5l-0.80078,0.40234l-0.1582,0.88086l0.61133,0.6543l0.34766,0.0625l0.80078,-0.40039l0.1582,-0.88281l-0.61133,-0.6543zM45.19922,39.19922l-0.80078,0.40234l-0.1582,0.88281l0.61328,0.6543l0.3457,0.06055l0.80273,-0.40039l0.15625,-0.88281l-0.61133,-0.6543zM42.40039,41.90039l-0.80078,0.40039l-0.1582,0.88281l0.61133,0.6543l0.34766,0.0625l0.80078,-0.40234l0.1582,-0.88086l-0.61328,-0.6543zM39.59961,44.59961l-0.80078,0.40234l-0.1582,0.88086l0.61328,0.6543l0.3457,0.0625l0.80078,-0.40039l0.1582,-0.88281l-0.61133,-0.6543zM36.80078,47.30078l-0.80273,0.40039l-0.15625,0.88281l0.61133,0.6543l0.34766,0.0625l0.80078,-0.40234l0.1582,-0.88281l-0.61328,-0.6543zM34.67578,52.82422l6.11914,4.90625l-8.41602,7.40234z"></path>
    </g>
    </g>

    
    <g id="vk" fill="#2c3673" fill-rule="nonzero" stroke="none" stroke-width="1" stroke-linecap="butt" stroke-linejoin="miter" stroke-miterlimit="10" stroke-dasharray="" stroke-dashoffset="0" font-family="none" font-weight="none" font-size="none" text-anchor="none" style="mix-blend-mode: normal">
    <g transform="scale(5.12,5.12)">
        <path d="M9,4c-2.74952,0 -5,2.25048 -5,5v32c0,2.74952 2.25048,5 5,5h32c2.74952,0 5,-2.25048 5,-5v-32c0,-2.74952 -2.25048,-5 -5,-5zM9,6h32c1.66848,0 3,1.33152 3,3v32c0,1.66848 -1.33152,3 -3,3h-32c-1.66848,0 -3,-1.33152 -3,-3v-32c0,-1.66848 1.33152,-3 3,-3zM23.39648,15.99219c-1.05749,-0.00243 -2.00043,0.05667 -2.84375,0.4707c-0.00065,0.00065 -0.0013,0.0013 -0.00195,0.00195c-0.41113,0.20256 -0.70091,0.45985 -0.93164,0.76563c-0.11537,0.15289 -0.23356,0.29013 -0.29687,0.63867c-0.03166,0.17427 -0.04944,0.45667 0.13281,0.76172c0.18226,0.30504 0.54873,0.4785 0.7832,0.50977c0.16288,0.02168 0.53054,0.17817 0.56445,0.22461c0.00065,0.0013 0.0013,0.00261 0.00195,0.00391c0.00024,0.00033 0.14258,0.372 0.18359,0.70313c0.04102,0.33112 0.03906,0.59961 0.03906,0.59961c-0.00042,0.02671 0.00023,0.05342 0.00195,0.08008c0,0 0.05793,0.86756 0.01953,1.76367c-0.0153,0.35715 -0.06149,0.67489 -0.10937,0.95898c-0.35611,-0.39316 -0.88084,-1.10515 -1.63867,-2.41797c-0.84069,-1.4572 -1.50977,-2.76367 -1.50977,-2.76367c-0.03514,-0.11382 -0.15941,-0.46794 -0.64453,-0.82422c-0.53033,-0.39087 -1.04297,-0.44922 -1.04297,-0.44922c-0.06431,-0.0129 -0.12973,-0.01944 -0.19531,-0.01953l-3.94141,0.00195c0,0 -0.23632,-0.01367 -0.51953,0.02539c-0.28322,0.03906 -0.70968,0.07085 -1.12109,0.55859c-0.00065,0.00065 -0.0013,0.0013 -0.00195,0.00195c-0.36769,0.43934 -0.34545,0.92493 -0.30078,1.19922c0.04466,0.27429 0.14453,0.48242 0.14453,0.48242c0.00193,0.00392 0.00388,0.00783 0.00586,0.01172c0,0 3.22389,6.77825 6.86719,10.76953c2.64568,2.89802 5.36122,2.94727 7.60156,2.94727h1.67188c0.42683,0 0.81292,-0.01668 1.24023,-0.26562c0.42732,-0.24895 0.71484,-0.855 0.71484,-1.27539c0,-0.44052 0.06577,-0.78682 0.14648,-0.96484c0.05676,-0.1252 0.1017,-0.17028 0.17188,-0.20703c0.01484,0.00941 0.00526,0.00394 0.04688,0.0332c0.16647,0.11707 0.44136,0.38393 0.74023,0.7168c0.59775,0.66574 1.27626,1.57889 2.1875,2.20508c0.65281,0.44899 1.26946,0.64837 1.73828,0.7207c0.29372,0.04532 0.52185,0.03659 0.68359,0.02344l3.73438,0.01563c0.02215,0.00008 0.0443,-0.00057 0.06641,-0.00195c0,0 0.64346,0.0075 1.3125,-0.39258c0.33452,-0.20006 0.72906,-0.57936 0.85742,-1.13281c0.12836,-0.55345 -0.03296,-1.12692 -0.34766,-1.65039c0,-0.00065 0,-0.0013 0,-0.00195c0.05465,0.0906 -0.04948,-0.09557 -0.15625,-0.26953c-0.10677,-0.17396 -0.2618,-0.40838 -0.48437,-0.69922c-0.44515,-0.58167 -1.15812,-1.39565 -2.31055,-2.46875c-0.00065,0 -0.0013,0 -0.00195,0c-0.58533,-0.54459 -0.98058,-0.93016 -1.14258,-1.14453c-0.162,-0.21437 -0.10887,-0.10176 -0.09766,-0.15625c0.02243,-0.10898 0.72492,-1.12238 2.1543,-3.03125c0.86889,-1.16189 1.47868,-2.03421 1.88086,-2.75977c0.40218,-0.72556 0.69217,-1.35393 0.49023,-2.12305c-0.00065,-0.0013 -0.0013,-0.00261 -0.00195,-0.00391c-0.08965,-0.33762 -0.33449,-0.64882 -0.58594,-0.81836c-0.25144,-0.16954 -0.48983,-0.23585 -0.70312,-0.27734c-0.42659,-0.08299 -0.79885,-0.06836 -1.14453,-0.06836c-0.72476,0 -3.94041,0.02539 -4.20508,0.02539c-0.31273,0 -0.82985,0.14224 -1.05859,0.2793c-0.57511,0.34608 -0.74023,0.80078 -0.74023,0.80078c-0.0104,0.01921 -0.02017,0.03875 -0.0293,0.05859c0,0 -0.66333,1.47093 -1.51758,2.92383c-0.86538,1.47373 -1.50468,2.17662 -1.89062,2.50195c-0.01062,-0.05786 -0.00879,-0.01088 -0.01562,-0.0918c-0.03459,-0.41154 0.00391,-0.98022 0.00391,-1.53516c0,-1.49451 0.12668,-2.54049 0.05859,-3.46484c-0.03404,-0.46217 -0.11965,-0.93876 -0.42383,-1.37695c-0.30417,-0.43819 -0.81031,-0.72286 -1.31055,-0.84375c-0.30015,-0.0724 -0.64229,-0.26071 -1.88086,-0.27344c-0.00065,0 -0.0013,0 -0.00195,0c-0.37877,-0.00379 -0.74321,-0.01091 -1.0957,-0.01172zM24.47266,18.00391c1.09597,0.01126 0.82297,0.07159 1.43164,0.21875c0.18876,0.04561 0.14303,0.04535 0.13867,0.03906c-0.0044,-0.0063 0.05106,0.09681 0.07227,0.38477c0.04242,0.5759 -0.06445,1.72092 -0.06445,3.31641c0,0.43507 -0.0525,1.05592 0.00195,1.70313c0.0544,0.6472 0.21492,1.47779 0.98828,1.97852c0.36659,0.23763 0.79224,0.2526 1.15625,0.16211c0.36401,-0.0905 0.69425,-0.27898 1.04102,-0.55664c0.69354,-0.55532 1.46711,-1.49254 2.43945,-3.14844c0.90881,-1.5457 1.56986,-3.01759 1.5918,-3.06641c0.00429,-0.00344 0.00864,-0.00581 0.01367,-0.00977c0.01249,0.00014 -0.00045,0 0.01563,0c0.37334,0 3.52984,-0.02539 4.20508,-0.02539c0.15763,0 0.21501,0.0095 0.33984,0.01367c-0.03393,0.11327 0.0038,0.04102 -0.14453,0.30859c-0.31107,0.56119 -0.88431,1.39519 -1.73242,2.5293c-1.39362,1.86113 -2.2574,2.5904 -2.51172,3.82617c-0.12716,0.61788 0.11116,1.30278 0.46094,1.76563c0.34978,0.46285 0.79128,0.85939 1.37695,1.4043c1.08457,1.0099 1.72083,1.74362 2.08594,2.2207c0.18255,0.23854 0.29763,0.41084 0.36914,0.52734c0.07151,0.11651 0.05384,0.10421 0.14648,0.25781c0.06099,0.10221 0.03852,0.03983 0.04883,0.07031c-0.1199,0.0338 -0.26516,0.07449 -0.27344,0.07617l-3.67773,-0.01562c-0.06624,-0.00004 -0.13232,0.0065 -0.19727,0.01953c0,0 0.0092,0.01082 -0.1875,-0.01953c-0.19673,-0.03035 -0.50962,-0.11548 -0.91211,-0.39258c-0.48576,-0.33381 -1.16579,-1.15056 -1.83203,-1.89258c-0.33312,-0.37101 -0.66534,-0.7273 -1.07812,-1.01758c-0.41278,-0.29028 -1.03045,-0.56324 -1.69727,-0.35352c-0.69222,0.21736 -1.23104,0.75758 -1.49414,1.33789c-0.19584,0.43197 -0.2117,0.88317 -0.24219,1.33203c-0.03319,0.0025 0.005,0 -0.03711,0h-1.67187c-2.27166,0 -3.88468,0.15711 -6.125,-2.29687c-3.01349,-3.30132 -5.77446,-8.79416 -6.22461,-9.69922l3.46875,-0.00195c0.06097,0.0234 0.19146,0.0724 0.19922,0.07813c0.0013,0.00131 0.0026,0.00261 0.00391,0.00391c-0.12679,-0.09268 0.00586,0.03711 0.00586,0.03711c0.01224,0.02994 0.02593,0.05927 0.04102,0.08789c0,0 0.68733,1.3428 1.55664,2.84961c0.85272,1.47719 1.47409,2.39998 2.07422,3.00977c0.30006,0.30489 0.60296,0.54942 1.00781,0.6875c0.40485,0.13808 0.92761,0.08743 1.2793,-0.10547c0.71843,-0.39327 0.81495,-0.97334 0.93164,-1.48047c0.11685,-0.50784 0.16337,-1.04884 0.18555,-1.56641c0.04304,-1.0046 -0.01783,-1.87404 -0.02148,-1.92773c0.00022,-0.01883 0.0048,-0.38139 -0.05273,-0.8457c-0.0589,-0.47545 -0.12459,-1.05676 -0.55469,-1.64258l-0.00195,-0.00195c-0.003,-0.0041 -0.00677,-0.00381 -0.00977,-0.00781c0.56875,-0.08157 1.0554,-0.18198 2.06641,-0.17187zM33.29492,18.98438l-0.01367,0.03125c-0.00212,0.00121 -0.00144,-0.00144 -0.00391,0c0.00423,-0.00806 0.01758,-0.03125 0.01758,-0.03125z"></path>
    </g>
    </g>

    
    <g id="instagram" fill="#2c3673" fill-rule="nonzero" stroke="none" stroke-width="1" stroke-linecap="butt" stroke-linejoin="miter" stroke-miterlimit="10" stroke-dasharray="" stroke-dashoffset="0" font-family="none" font-weight="none" font-size="none" text-anchor="none" style="mix-blend-mode: normal">
    <g transform="scale(5.12,5.12)">
        <path d="M16,3c-7.16752,0 -13,5.83248 -13,13v18c0,7.16752 5.83248,13 13,13h18c7.16752,0 13,-5.83248 13,-13v-18c0,-7.16752 -5.83248,-13 -13,-13zM16,5h18c6.08648,0 11,4.91352 11,11v18c0,6.08648 -4.91352,11 -11,11h-18c-6.08648,0 -11,-4.91352 -11,-11v-18c0,-6.08648 4.91352,-11 11,-11zM37,11c-1.10457,0 -2,0.89543 -2,2c0,1.10457 0.89543,2 2,2c1.10457,0 2,-0.89543 2,-2c0,-1.10457 -0.89543,-2 -2,-2zM25,14c-6.06329,0 -11,4.93671 -11,11c0,6.06329 4.93671,11 11,11c6.06329,0 11,-4.93671 11,-11c0,-6.06329 -4.93671,-11 -11,-11zM25,16c4.98241,0 9,4.01759 9,9c0,4.98241 -4.01759,9 -9,9c-4.98241,0 -9,-4.01759 -9,-9c0,-4.98241 4.01759,-9 9,-9z"></path>
    </g></g>

    
    <g id="whatsapp" fill="#2c3673" fill-rule="nonzero" stroke="none" stroke-width="1" stroke-linecap="butt" stroke-linejoin="miter" stroke-miterlimit="10" stroke-dasharray="" stroke-dashoffset="0" font-family="none" font-weight="none" font-size="none" text-anchor="none" style="mix-blend-mode: normal">
    <g transform="scale(5.12,5.12)">
        <path d="M25,2c-12.69047,0 -23,10.30953 -23,23c0,4.0791 1.11869,7.88588 2.98438,11.20898l-2.94727,10.52148c-0.09582,0.34262 -0.00241,0.71035 0.24531,0.96571c0.24772,0.25536 0.61244,0.35989 0.95781,0.27452l10.9707,-2.71875c3.22369,1.72098 6.88165,2.74805 10.78906,2.74805c12.69047,0 23,-10.30953 23,-23c0,-12.69047 -10.30953,-23 -23,-23zM25,4c11.60953,0 21,9.39047 21,21c0,11.60953 -9.39047,21 -21,21c-3.72198,0 -7.20788,-0.97037 -10.23828,-2.66602c-0.22164,-0.12385 -0.48208,-0.15876 -0.72852,-0.09766l-9.60742,2.38086l2.57617,-9.19141c0.07449,-0.26248 0.03851,-0.54399 -0.09961,-0.7793c-1.84166,-3.12289 -2.90234,-6.75638 -2.90234,-10.64648c0,-11.60953 9.39047,-21 21,-21zM16.64258,13c-0.64104,0 -1.55653,0.23849 -2.30859,1.04883c-0.45172,0.48672 -2.33398,2.32068 -2.33398,5.54492c0,3.36152 2.33139,6.2621 2.61328,6.63477h0.00195v0.00195c-0.02674,-0.03514 0.3578,0.52172 0.87109,1.18945c0.5133,0.66773 1.23108,1.54472 2.13281,2.49414c1.80347,1.89885 4.33914,4.09336 7.48633,5.43555c1.44932,0.61717 2.59271,0.98981 3.45898,1.26172c1.60539,0.5041 3.06762,0.42747 4.16602,0.26563c0.82216,-0.12108 1.72641,-0.51584 2.62109,-1.08203c0.89469,-0.56619 1.77153,-1.2702 2.1582,-2.33984c0.27701,-0.76683 0.41783,-1.47548 0.46875,-2.05859c0.02546,-0.29156 0.02869,-0.54888 0.00977,-0.78711c-0.01897,-0.23823 0.0013,-0.42071 -0.2207,-0.78516c-0.46557,-0.76441 -0.99283,-0.78437 -1.54297,-1.05664c-0.30567,-0.15128 -1.17595,-0.57625 -2.04883,-0.99219c-0.8719,-0.41547 -1.62686,-0.78344 -2.0918,-0.94922c-0.29375,-0.10568 -0.65243,-0.25782 -1.16992,-0.19922c-0.51749,0.0586 -1.0286,0.43198 -1.32617,0.87305c-0.28205,0.41807 -1.4175,1.75835 -1.76367,2.15234c-0.0046,-0.0028 0.02544,0.01104 -0.11133,-0.05664c-0.42813,-0.21189 -0.95173,-0.39205 -1.72656,-0.80078c-0.77483,-0.40873 -1.74407,-1.01229 -2.80469,-1.94727v-0.00195c-1.57861,-1.38975 -2.68437,-3.1346 -3.0332,-3.7207c0.0235,-0.02796 -0.00279,0.0059 0.04687,-0.04297l0.00195,-0.00195c0.35652,-0.35115 0.67247,-0.77056 0.93945,-1.07812c0.37854,-0.43609 0.54559,-0.82052 0.72656,-1.17969c0.36067,-0.71583 0.15985,-1.50352 -0.04883,-1.91797v-0.00195c0.01441,0.02867 -0.11288,-0.25219 -0.25,-0.57617c-0.13751,-0.32491 -0.31279,-0.74613 -0.5,-1.19531c-0.37442,-0.89836 -0.79243,-1.90595 -1.04102,-2.49609v-0.00195c-0.29285,-0.69513 -0.68904,-1.1959 -1.20703,-1.4375c-0.51799,-0.2416 -0.97563,-0.17291 -0.99414,-0.17383h-0.00195c-0.36964,-0.01705 -0.77527,-0.02148 -1.17773,-0.02148zM16.64258,15c0.38554,0 0.76564,0.0047 1.08398,0.01953c0.32749,0.01632 0.30712,0.01766 0.24414,-0.01172c-0.06399,-0.02984 0.02283,-0.03953 0.20898,0.40234c0.24341,0.57785 0.66348,1.58909 1.03906,2.49023c0.18779,0.45057 0.36354,0.87343 0.50391,1.20508c0.14036,0.33165 0.21642,0.51683 0.30469,0.69336v0.00195l0.00195,0.00195c0.08654,0.17075 0.07889,0.06143 0.04883,0.12109c-0.21103,0.41883 -0.23966,0.52166 -0.45312,0.76758c-0.32502,0.37443 -0.65655,0.792 -0.83203,0.96484c-0.15353,0.15082 -0.43055,0.38578 -0.60352,0.8457c-0.17323,0.46063 -0.09238,1.09262 0.18555,1.56445c0.37003,0.62819 1.58941,2.6129 3.48438,4.28125c1.19338,1.05202 2.30519,1.74828 3.19336,2.2168c0.88817,0.46852 1.61157,0.74215 1.77344,0.82227c0.38438,0.19023 0.80448,0.33795 1.29297,0.2793c0.48849,-0.05865 0.90964,-0.35504 1.17773,-0.6582l0.00195,-0.00195c0.3568,-0.40451 1.41702,-1.61513 1.92578,-2.36133c0.02156,0.0076 0.0145,0.0017 0.18359,0.0625v0.00195h0.00195c0.0772,0.02749 1.04413,0.46028 1.90625,0.87109c0.86212,0.41081 1.73716,0.8378 2.02148,0.97852c0.41033,0.20308 0.60422,0.33529 0.6543,0.33594c0.00338,0.08798 0.0068,0.18333 -0.00586,0.32813c-0.03507,0.40164 -0.14243,0.95757 -0.35742,1.55273c-0.10532,0.29136 -0.65389,0.89227 -1.3457,1.33008c-0.69181,0.43781 -1.53386,0.74705 -1.8457,0.79297c-0.9376,0.13815 -2.05083,0.18859 -3.27344,-0.19531c-0.84773,-0.26609 -1.90476,-0.61053 -3.27344,-1.19336c-2.77581,-1.18381 -5.13503,-3.19825 -6.82031,-4.97266c-0.84264,-0.8872 -1.51775,-1.71309 -1.99805,-2.33789c-0.4794,-0.62364 -0.68874,-0.94816 -0.86328,-1.17773l-0.00195,-0.00195c-0.30983,-0.40973 -2.20703,-3.04868 -2.20703,-5.42578c0,-2.51576 1.1685,-3.50231 1.80078,-4.18359c0.33194,-0.35766 0.69484,-0.41016 0.8418,-0.41016z"></path>
    </g>
    </g>

</svg>